<?xml version="1.0" standalone="no"?>
<!DOCTYPE svg PUBLIC "-//W3C//DTD SVG 20010904//EN"
 "http://www.w3.org/TR/2001/REC-SVG-20010904/DTD/svg10.dtd">
<svg version="1.0" xmlns="http://www.w3.org/2000/svg"
 width="1024.000000pt" height="1024.000000pt" viewBox="0 0 1024.000000 1024.000000"
 preserveAspectRatio="xMidYMid meet">
<metadata>
Created by potrace 1.14, written by Peter Selinger 2001-2017
</metadata>
<g transform="translate(0.000000,1024.000000) scale(0.100000,-0.100000)"
fill="#000000" stroke="none">
<path d="M3175 10228 c-16 -6 -32 -14 -35 -17 -3 -3 -18 -13 -33 -22 -26 -14
-34 -14 -108 7 -131 38 -234 26 -334 -41 -24 -16 -47 -20 -125 -21 -106 -1
-152 -16 -207 -67 -31 -29 -34 -29 -140 -30 -111 0 -220 -23 -254 -53 -8 -8
-20 -14 -25 -14 -13 -1 -74 -58 -74 -70 0 -6 -4 -8 -10 -5 -5 3 -10 2 -10 -3
0 -5 -33 -9 -72 -9 -131 1 -225 -45 -283 -137 -34 -55 -24 -221 17 -272 5 -7
-6 -39 -31 -85 -35 -66 -39 -81 -36 -135 3 -62 26 -120 71 -181 25 -33 31 -59
14 -65 -11 -4 -16 -115 -6 -143 25 -67 46 -105 87 -159 32 -40 46 -67 43 -80
-23 -102 25 -222 120 -302 41 -34 46 -43 46 -80 0 -103 76 -216 206 -305 63
-43 74 -54 74 -76 0 -49 94 -193 126 -193 6 0 19 -9 29 -20 10 -11 22 -20 28
-20 5 0 23 -6 40 -14 18 -8 49 -20 70 -26 27 -8 41 -20 48 -38 39 -109 115
-173 249 -211 25 -7 56 -17 69 -23 24 -9 23 -9 -15 -30 -46 -24 -147 -88 -154
-97 -3 -3 -16 -12 -30 -19 -75 -39 -301 -245 -363 -329 -17 -24 -34 -43 -39
-43 -4 0 -8 -4 -8 -10 0 -5 -18 -35 -40 -66 -22 -32 -40 -63 -40 -71 0 -7 -4
-13 -10 -13 -5 0 -10 -4 -10 -10 0 -5 -15 -41 -34 -80 -28 -56 -65 -150 -71
-180 -1 -3 -7 -25 -14 -50 -14 -46 -19 -67 -27 -110 -3 -14 -7 -32 -9 -40 -15
-51 -32 -225 -39 -392 -3 -90 -51 -171 -135 -228 -36 -25 -80 -58 -98 -75 -18
-16 -38 -35 -45 -41 -67 -58 -201 -227 -260 -327 -72 -124 -148 -291 -139
-306 2 -2 -1 -7 -6 -10 -9 -6 -57 -176 -67 -236 -3 -16 -9 -52 -13 -80 -10
-62 -10 -344 0 -405 15 -93 25 -136 49 -215 12 -38 22 -72 23 -75 1 -3 6 -16
12 -30 6 -14 19 -45 29 -70 9 -25 25 -56 35 -70 9 -14 16 -27 16 -30 -1 -9 56
-103 104 -172 47 -66 60 -82 110 -142 24 -29 31 -46 45 -121 9 -48 32 -134 39
-145 3 -5 8 -19 11 -30 2 -11 6 -28 8 -37 6 -24 59 -175 103 -293 20 -52 37
-104 39 -115 1 -11 3 -20 4 -20 1 0 3 -9 5 -20 5 -30 19 -109 20 -120 1 -5 5
-17 8 -25 4 -8 8 -26 11 -40 6 -32 52 -165 72 -210 42 -91 98 -198 125 -236
16 -24 29 -47 29 -53 0 -6 3 -11 8 -11 4 0 18 -17 32 -38 14 -20 33 -45 44
-54 10 -10 16 -18 13 -18 -14 0 159 -179 226 -233 21 -18 51 -42 65 -55 47
-40 194 -134 261 -168 83 -41 161 -75 161 -69 0 4 187 -129 217 -155 7 -5 17
-10 23 -10 5 0 10 -3 10 -8 0 -4 36 -30 81 -57 44 -28 92 -58 107 -67 108 -68
341 -183 482 -238 85 -33 144 -62 160 -79 23 -24 143 -129 199 -174 53 -42
203 -137 276 -175 71 -36 182 -87 195 -90 3 0 16 -5 30 -10 14 -5 54 -17 90
-26 36 -10 81 -21 100 -26 19 -6 53 -12 75 -16 22 -3 56 -8 75 -11 51 -9 385
-9 455 0 56 7 115 17 175 31 14 3 34 8 45 10 28 6 144 44 180 60 17 7 46 19
65 27 54 20 226 113 240 129 3 3 17 11 32 19 15 8 36 21 45 30 10 9 45 36 77
61 33 25 93 76 134 115 66 62 134 105 166 105 6 0 22 6 36 13 14 7 52 24 85
37 79 32 348 169 356 182 3 5 10 10 15 10 11 1 26 10 169 104 117 76 240 163
265 187 8 8 33 20 55 27 37 12 153 66 200 93 39 22 130 82 141 92 7 5 43 34
82 64 96 74 273 256 319 328 9 15 21 30 24 33 15 11 118 182 135 225 11 25 22
45 27 45 4 0 7 7 7 15 0 8 9 34 19 58 37 80 101 307 101 358 0 17 29 116 47
159 3 8 7 17 8 20 2 5 6 16 21 55 4 11 8 22 9 25 6 24 18 59 25 75 12 27 43
124 69 210 20 68 26 93 35 145 12 63 17 76 46 109 28 33 148 200 178 246 29
45 112 221 112 237 0 9 4 19 9 22 4 3 14 27 21 53 14 54 17 66 19 73 10 26 27
110 37 175 10 64 11 323 2 395 -7 52 -24 133 -47 225 -18 72 -67 198 -113 291
-41 81 -123 221 -138 234 -3 3 -21 25 -39 50 -19 25 -39 50 -45 55 -6 6 -35
36 -63 67 -29 31 -53 55 -53 54 0 -2 -16 12 -36 31 -20 18 -62 51 -94 73 -53
36 -100 94 -124 155 -5 11 -10 52 -11 90 -4 97 -14 234 -20 270 -5 31 -14 83
-21 125 -3 14 -16 66 -29 115 -87 320 -242 555 -511 776 -81 66 -312 219 -332
219 -27 0 0 18 45 30 57 16 50 14 88 29 17 6 37 14 45 17 27 9 99 69 100 82 0
6 5 12 10 12 6 0 10 7 10 15 0 8 4 15 10 15 5 0 9 3 8 8 0 4 2 15 5 25 4 9 9
24 11 31 3 8 24 20 47 26 162 44 280 160 291 287 1 5 28 28 62 52 76 55 147
125 172 171 10 19 24 38 29 42 6 4 6 8 2 8 -4 0 -3 8 2 18 5 10 11 41 12 68 2
35 8 54 23 67 70 61 98 94 122 145 24 49 27 68 26 140 -1 45 2 82 7 82 5 0 21
19 37 43 16 23 31 44 34 47 12 12 44 83 48 108 8 47 4 130 -7 150 -8 16 -5 27
17 58 86 121 92 218 22 335 l-29 47 22 43 c17 35 22 62 22 129 0 76 -3 90 -27
127 -56 86 -161 132 -290 127 -51 -2 -59 0 -86 29 -46 48 -58 56 -115 82 -68
31 -142 44 -249 43 -84 -1 -88 0 -123 30 -57 51 -99 64 -207 66 -85 1 -101 5
-129 25 -82 61 -215 73 -351 33 -55 -17 -69 -18 -78 -7 -25 30 -110 56 -176
54 -36 -1 -67 -6 -70 -11 -3 -4 -13 -8 -22 -8 -10 0 -33 -8 -52 -19 -70 -37
-105 -43 -167 -31 -106 22 -163 12 -257 -44 -47 -28 -55 -30 -165 -30 -106 -1
-121 -3 -167 -28 -28 -15 -82 -56 -119 -92 l-69 -66 -71 0 c-59 0 -77 -4 -110
-26 -45 -30 -151 -118 -178 -149 -10 -11 -34 -37 -53 -57 -19 -20 -34 -42 -34
-48 0 -5 -4 -10 -9 -10 -8 0 -63 -79 -115 -163 -57 -92 -117 -227 -181 -402
-5 -16 -11 -8 -25 38 -88 280 -272 564 -470 725 -25 21 -47 39 -50 43 -3 3
-22 16 -43 28 -32 19 -51 23 -106 22 l-67 -2 -70 68 c-107 102 -144 118 -284
119 -115 1 -115 1 -192 42 -75 40 -80 41 -155 38 -43 -2 -92 -7 -109 -10 -21
-5 -49 0 -85 15 -119 48 -146 55 -204 57 -33 0 -73 -4 -90 -10z m3804 -265
c-8 -10 -20 -24 -27 -31 -40 -43 -48 -100 -19 -130 12 -12 27 -7 99 32 72 39
160 76 218 91 37 10 98 24 125 29 28 5 26 3 -28 -50 -31 -30 -57 -58 -58 -62
0 -4 -2 -15 -4 -24 -7 -36 21 -42 93 -20 78 25 216 61 252 66 14 2 42 7 63 11
20 3 37 4 37 1 0 -3 -17 -24 -39 -46 -43 -45 -52 -66 -40 -98 7 -18 14 -22 36
-18 16 2 28 5 28 6 0 1 7 3 15 5 8 1 42 10 75 19 70 20 105 25 200 30 72 4
170 -5 181 -17 4 -3 -19 -32 -50 -63 -32 -31 -55 -58 -52 -61 3 -3 108 -7 233
-10 125 -2 229 -6 232 -8 2 -3 -5 -15 -17 -28 -12 -13 -22 -29 -22 -35 0 -7
-4 -12 -8 -12 -23 0 -143 -272 -127 -288 7 -7 122 -6 163 1 23 4 32 1 32 -8 0
-26 -95 -140 -175 -208 -98 -85 -113 -104 -94 -123 19 -19 84 -22 147 -8 28 6
52 9 52 6 0 -3 -13 -26 -30 -51 -27 -42 -108 -125 -234 -240 -47 -43 -47 -43
-24 -55 13 -7 53 -12 91 -12 37 1 67 -2 67 -5 0 -19 -206 -190 -309 -256 -54
-34 -54 -35 -32 -48 13 -6 53 -13 89 -14 36 -1 70 -5 74 -8 10 -5 -98 -92
-141 -115 -15 -7 -28 -16 -31 -19 -4 -5 -148 -79 -250 -130 l-35 -18 48 -21
c28 -12 69 -21 100 -22 48 0 50 -1 32 -15 -18 -13 -113 -65 -125 -68 -3 -1
-18 -7 -35 -14 -26 -11 -241 -83 -255 -86 -3 -1 -16 -5 -28 -9 l-24 -8 27 -28
c14 -15 44 -33 67 -39 39 -12 42 -28 7 -35 -8 -2 -21 -6 -29 -9 -36 -14 -88
-26 -130 -31 -77 -10 -143 -17 -205 -22 -67 -5 -81 -7 -112 -18 -19 -6 -21
-10 -11 -31 10 -22 76 -75 108 -88 14 -5 -27 -9 -110 -10 -46 0 -259 12 -285
17 -11 2 -51 9 -90 16 -304 54 -516 161 -665 336 -56 65 -108 164 -129 242
l-12 42 79 77 c150 149 335 300 507 418 39 26 72 50 75 54 3 4 27 20 54 36 27
17 59 37 72 45 70 46 262 165 349 216 55 32 102 62 103 66 2 5 7 6 12 3 5 -3
15 0 22 7 16 15 31 24 146 85 48 26 89 50 90 55 2 4 10 8 17 8 8 0 29 9 47 19
18 11 85 47 148 81 63 34 104 59 90 55 -14 -3 -29 -7 -35 -8 -5 -2 -14 -5 -20
-8 -5 -4 -28 -12 -50 -19 -22 -7 -53 -18 -70 -25 -16 -7 -50 -20 -75 -28 -25
-9 -58 -22 -75 -28 -16 -7 -32 -13 -35 -14 -3 -1 -16 -6 -30 -12 -14 -6 -50
-21 -80 -33 -30 -12 -70 -28 -87 -36 -18 -8 -50 -21 -70 -30 -218 -93 -656
-319 -765 -395 -14 -11 -29 -19 -31 -19 -7 0 -280 -180 -287 -189 -3 -3 -25
-20 -49 -36 -25 -17 -83 -60 -129 -96 -46 -37 -90 -66 -97 -65 -6 1 -23 8 -36
17 -13 8 -36 21 -51 28 -16 8 -28 18 -28 23 0 4 -6 8 -14 8 -23 0 -129 123
-158 182 -42 88 -53 136 -52 248 0 109 2 126 28 221 27 99 103 279 118 279 4
0 8 7 8 15 0 9 4 21 10 28 8 10 75 109 125 184 15 23 64 81 120 141 l49 54 9
-29 c21 -72 40 -113 50 -113 7 0 28 19 47 42 57 68 254 269 273 280 17 9 19 6
17 -34 -4 -71 -1 -86 24 -115 l24 -28 22 27 c34 44 92 101 145 143 28 22 52
43 53 48 2 4 8 7 14 7 5 0 24 10 41 22 l30 22 -7 -25 c-18 -66 -18 -78 5 -118
12 -23 27 -41 33 -41 6 0 29 16 51 35 73 63 142 111 210 145 28 14 53 30 57
35 4 6 8 6 8 2 0 -4 12 -1 28 7 35 20 37 19 21 -1z m-3633 -11 c22 -10 50 -24
64 -32 14 -8 27 -14 30 -15 8 0 55 -35 141 -102 44 -35 82 -63 85 -63 11 0 30
26 43 56 14 35 9 87 -9 110 -22 25 0 15 74 -33 39 -26 107 -85 152 -130 75
-78 82 -82 96 -66 28 32 35 57 33 110 -2 46 0 51 14 43 31 -17 168 -158 291
-300 9 -11 22 -20 27 -20 14 0 39 56 50 110 2 13 6 26 7 28 6 5 92 -90 153
-168 204 -262 317 -536 314 -760 -2 -89 -2 -88 -26 -165 -39 -126 -142 -243
-272 -312 -51 -26 -55 -27 -67 -10 -7 9 -18 17 -24 17 -6 0 -12 4 -14 8 -1 5
-48 42 -103 83 -55 41 -101 77 -103 82 -2 4 -8 7 -13 7 -5 0 -40 21 -77 48
-38 26 -77 52 -88 59 -10 6 -62 38 -114 71 -52 33 -111 69 -130 80 -19 11 -63
36 -98 55 -90 52 -386 200 -489 246 -48 21 -108 48 -133 59 -25 11 -110 46
-190 77 -80 31 -158 61 -175 68 -16 6 -33 12 -37 12 -3 0 -10 3 -14 8 -4 4
-14 7 -22 7 -8 0 -28 6 -45 14 -133 58 -136 43 -5 -24 309 -156 699 -380 938
-539 63 -42 120 -78 125 -80 6 -2 12 -7 15 -11 3 -3 28 -21 55 -40 28 -19 52
-37 55 -40 3 -3 27 -22 55 -40 27 -19 56 -40 65 -47 8 -7 44 -36 80 -64 36
-28 72 -58 80 -65 8 -8 33 -31 55 -51 89 -80 173 -162 188 -183 15 -21 14 -27
-8 -84 -63 -164 -146 -268 -298 -370 -134 -90 -354 -164 -572 -191 -141 -18
-438 -24 -395 -8 25 10 90 64 101 85 13 24 3 37 -32 43 -53 8 -118 15 -194 20
-44 3 -87 8 -95 10 -8 2 -28 7 -45 10 -57 10 -70 13 -119 32 l-49 20 44 11
c49 12 113 68 88 76 -8 2 -70 23 -139 45 -69 22 -143 48 -165 57 -22 10 -42
18 -45 19 -12 3 -65 30 -70 35 -3 4 -15 13 -28 22 -21 14 -20 15 32 17 53 1
119 22 130 39 3 5 -36 28 -86 53 -104 50 -256 138 -298 171 -16 13 -39 31 -51
41 -13 9 -21 17 -19 18 11 2 59 7 105 9 50 3 85 15 85 28 0 4 -17 17 -38 29
-81 46 -322 243 -322 262 0 3 36 6 80 7 44 0 85 5 91 11 7 7 -8 27 -48 64
-145 136 -212 208 -240 257 -16 28 -6 33 37 18 47 -15 115 -11 147 9 l26 17
-64 56 c-146 129 -239 238 -224 263 4 5 10 7 15 4 12 -7 169 -10 176 -2 17 17
-54 181 -125 287 -27 41 -49 75 -48 76 1 1 104 4 230 7 125 2 230 7 233 10 3
3 -19 32 -50 64 -55 55 -56 58 -34 66 32 12 192 16 247 5 25 -5 57 -11 71 -13
41 -8 63 -13 100 -25 70 -22 88 -22 100 0 16 29 5 54 -46 105 -24 25 -40 45
-35 45 4 0 33 -5 62 -10 30 -6 68 -13 84 -16 17 -2 38 -7 47 -10 9 -3 26 -7
37 -9 35 -8 53 -13 121 -34 80 -26 87 -26 95 -1 9 27 -10 57 -69 113 -49 46
-50 47 -21 41 122 -25 206 -54 313 -106 117 -58 123 -60 136 -42 21 29 11 81
-24 125 -35 43 -30 47 26 21z m1904 -2596 c78 -8 132 -16 140 -21 4 -2 20 -7
37 -9 50 -9 164 -46 223 -73 133 -60 124 -55 260 -142 90 -57 230 -205 269
-285 72 -149 44 -292 -85 -420 -33 -34 -78 -71 -100 -83 -121 -69 -288 -131
-409 -153 -33 -5 -70 -12 -82 -14 -137 -27 -513 -28 -643 -2 -8 1 -33 6 -55
10 -385 72 -668 266 -721 493 -17 69 -17 76 -1 126 35 110 149 239 307 346 66
44 214 125 250 136 3 1 14 5 25 9 23 9 77 27 107 36 108 31 173 42 250 44 27
1 48 3 48 6 0 6 101 3 180 -4z m-1540 -200 c41 -3 93 -9 115 -12 22 -4 49 -8
60 -9 12 -1 24 -13 29 -28 13 -35 -11 -84 -94 -197 -59 -79 -332 -361 -446
-460 -28 -25 -78 -68 -110 -97 -100 -88 -250 -209 -373 -302 -89 -66 -335
-231 -345 -231 -4 0 -23 -10 -44 -23 -90 -57 -216 -87 -243 -60 -6 6 -13 29
-16 50 -2 21 -5 44 -8 51 -2 6 -1 12 3 12 4 0 7 30 8 68 0 81 15 208 28 250 4
11 9 31 12 44 3 13 6 28 8 33 2 6 6 24 11 40 12 47 76 195 108 250 90 155 192
266 362 393 84 63 322 169 416 186 8 1 23 5 34 9 11 3 39 8 63 11 23 3 46 7
50 10 4 2 50 7 102 10 51 4 95 7 96 9 3 3 76 0 174 -7z m3090 -30 c125 -6 162
-10 253 -31 75 -17 208 -60 247 -80 14 -6 52 -25 84 -41 77 -37 220 -138 277
-195 66 -66 149 -164 149 -176 0 -6 4 -13 8 -15 27 -11 142 -246 167 -343 5
-16 9 -34 11 -40 4 -14 18 -76 29 -127 14 -70 26 -315 17 -351 -4 -15 -53 -35
-73 -30 -4 1 -17 4 -30 7 -42 8 -93 29 -142 58 -26 15 -51 28 -55 28 -4 0 -31
16 -59 35 -29 19 -57 35 -63 35 -5 0 -10 5 -10 10 0 6 -8 13 -17 17 -19 7
-275 190 -308 220 -11 10 -29 25 -41 33 -27 19 -112 90 -136 113 -10 9 -20 17
-23 17 -2 0 -15 10 -27 23 -13 12 -41 36 -62 54 -121 101 -404 379 -473 463
-15 19 -36 44 -46 55 -32 35 -98 142 -107 174 -6 24 -5 35 8 50 18 20 49 27
187 37 44 3 81 7 83 8 1 2 12 2 25 0 12 -2 69 -6 127 -8z m-380 -1040 c36 -2
74 -7 85 -9 11 -2 38 -8 60 -12 63 -11 183 -54 270 -95 139 -67 262 -156 381
-278 65 -65 76 -79 149 -177 41 -55 162 -281 169 -315 2 -8 6 -24 10 -35 22
-59 27 -72 30 -90 3 -11 10 -42 16 -70 20 -87 24 -127 24 -260 0 -157 -9 -233
-41 -330 -9 -27 -18 -54 -19 -60 -5 -26 -61 -137 -101 -199 -52 -81 -165 -198
-243 -252 -100 -69 -223 -119 -370 -151 -48 -10 -320 -10 -345 1 -11 4 -33 10
-50 11 -29 4 -64 11 -75 16 -3 1 -9 3 -15 4 -5 1 -17 4 -25 8 -8 3 -37 13 -65
23 -153 54 -330 170 -466 304 -90 90 -189 209 -189 229 0 5 -3 11 -7 13 -11 4
-37 49 -86 148 -100 199 -139 369 -139 595 0 119 7 174 33 269 10 39 21 80 24
92 8 35 74 164 117 228 44 66 202 226 223 226 7 0 15 4 17 9 7 19 117 75 214
110 85 29 139 41 229 47 44 4 81 8 83 9 2 2 11 1 20 -1 9 -2 46 -5 82 -8z
m-2330 -60 c231 -25 478 -161 610 -336 14 -18 31 -39 38 -46 6 -7 12 -16 12
-19 0 -4 9 -20 21 -36 11 -16 17 -29 12 -29 -4 0 -3 -4 3 -8 31 -20 94 -201
117 -337 17 -99 13 -334 -6 -400 -3 -11 -8 -37 -11 -58 -17 -111 -145 -405
-203 -465 -7 -7 -13 -17 -13 -21 0 -4 -8 -17 -17 -29 -10 -11 -29 -36 -43 -54
-31 -41 -185 -195 -229 -228 -18 -14 -46 -36 -62 -48 -16 -13 -29 -21 -29 -18
0 3 -9 -2 -19 -11 -26 -22 -161 -93 -161 -85 0 4 -4 2 -8 -4 -8 -12 -92 -47
-92 -38 0 4 -6 2 -12 -4 -44 -35 -258 -71 -401 -66 -103 3 -119 5 -192 20 -54
11 -44 8 -145 46 -147 56 -320 192 -399 313 -14 22 -28 42 -31 45 -4 3 -22 37
-42 75 -77 153 -111 301 -112 490 0 141 3 173 34 303 23 99 60 200 103 287 30
60 105 186 117 195 4 3 11 12 16 21 39 70 204 234 315 314 122 88 338 189 445
209 173 32 252 37 384 22z m4136 -662 c32 -19 86 -56 119 -82 61 -47 219 -202
207 -202 -4 0 -2 -4 4 -8 16 -11 108 -151 128 -197 72 -159 83 -193 111 -356
14 -80 15 -326 1 -399 -2 -14 -8 -43 -11 -65 -11 -66 -71 -237 -108 -311 -73
-144 -205 -301 -269 -320 -99 -31 -211 91 -305 331 -35 88 -79 232 -98 315 -8
35 -34 167 -39 195 -3 17 -7 41 -10 55 -2 14 -7 45 -10 70 -4 25 -8 56 -11 70
-15 84 -29 513 -17 534 3 5 5 26 5 45 0 20 2 40 5 45 3 6 7 24 8 40 3 49 43
155 74 201 32 46 79 74 126 75 17 0 55 -15 90 -36z m-6052 -9 c79 -41 123
-149 151 -370 7 -52 7 -306 1 -385 -13 -152 -19 -201 -41 -325 -8 -44 -17 -96
-20 -115 -3 -19 -8 -42 -10 -50 -2 -8 -7 -28 -9 -45 -3 -16 -15 -61 -26 -100
-11 -38 -22 -74 -24 -80 -42 -145 -111 -307 -150 -352 -11 -13 -17 -23 -13
-23 12 0 -68 -82 -98 -99 -36 -21 -88 -26 -118 -10 -35 19 -134 127 -182 199
-49 74 -103 186 -130 270 -10 30 -20 62 -23 70 -3 8 -7 24 -9 35 -2 11 -8 36
-13 55 -23 87 -32 323 -16 435 38 270 151 499 336 685 70 70 188 162 233 182
15 7 27 16 27 20 0 20 97 22 134 3z m3156 -1470 c14 -3 41 -8 60 -11 61 -9
119 -25 185 -50 11 -4 25 -8 32 -10 33 -7 207 -102 273 -150 136 -99 266 -248
336 -385 32 -65 87 -209 79 -209 -3 0 0 -12 6 -27 30 -78 32 -311 4 -443 -2
-8 -4 -15 -5 -15 -1 0 -3 -9 -5 -20 -1 -11 -15 -53 -29 -93 -70 -187 -199
-359 -362 -480 -38 -29 -74 -56 -80 -61 -30 -25 -230 -114 -304 -136 -84 -25
-97 -28 -175 -41 -87 -14 -269 -19 -325 -10 -14 3 -46 7 -72 11 -53 6 -229 50
-256 64 -9 4 -53 25 -97 46 -291 136 -517 397 -594 685 -146 546 168 1089 740
1281 51 17 105 33 119 35 14 2 35 6 47 9 13 3 49 8 80 11 32 4 59 8 61 9 6 5
255 -4 282 -10z m2547 -408 c136 -37 224 -158 283 -386 20 -76 23 -95 38 -217
9 -71 8 -267 -2 -339 -19 -139 -58 -278 -106 -376 -39 -81 -100 -179 -111
-179 -5 0 -9 -5 -9 -11 0 -14 -102 -137 -172 -209 -232 -237 -499 -379 -783
-416 -68 -9 -195 -9 -240 -1 -16 4 -45 9 -63 12 -48 8 -151 57 -189 89 -70 59
-120 213 -117 361 1 84 12 203 18 214 3 4 7 26 11 51 4 25 9 48 12 52 2 5 7
20 9 34 5 29 50 158 84 244 24 63 138 282 149 290 5 3 14 16 20 29 50 94 280
340 464 497 37 31 184 137 197 142 8 3 22 11 32 19 23 21 195 93 243 103 43 9
196 7 232 -3z m-5322 -157 c0 -1 14 -4 30 -6 154 -24 413 -164 599 -325 142
-123 318 -325 371 -426 11 -21 22 -40 25 -43 10 -9 90 -181 90 -194 0 -6 4
-16 9 -21 11 -13 55 -153 61 -197 1 -4 5 -21 10 -38 23 -79 34 -331 18 -400
-15 -63 -32 -110 -40 -110 -5 0 -7 -4 -4 -9 3 -5 -1 -14 -9 -21 -8 -7 -15 -16
-15 -21 0 -15 -57 -67 -96 -87 -137 -70 -375 -75 -572 -14 -18 6 -35 11 -37
11 -3 1 -21 8 -41 16 -20 8 -38 15 -40 15 -12 0 -128 58 -172 86 -29 19 -56
34 -61 34 -5 0 -11 3 -13 8 -1 4 -30 27 -63 51 -67 49 -224 204 -270 266 -17
22 -40 51 -51 63 -20 23 -85 145 -117 222 -18 43 -41 103 -43 110 0 3 -3 12
-7 20 -13 33 -38 120 -43 147 -3 15 -9 46 -14 68 -52 238 -21 515 73 655 32
47 78 92 102 99 6 2 21 8 35 13 61 25 121 34 200 32 47 -1 85 -3 85 -4z m2930
-1924 c33 -3 71 -8 85 -11 14 -3 40 -7 58 -10 74 -12 93 -16 197 -40 97 -23
275 -91 287 -109 4 -6 8 -7 8 -3 0 11 89 -51 119 -83 52 -57 66 -119 39 -185
-35 -88 -152 -225 -268 -313 -30 -23 -60 -46 -66 -51 -27 -22 -200 -122 -221
-127 -13 -4 -23 -10 -23 -15 0 -5 -5 -9 -11 -9 -6 0 -25 -6 -42 -14 -62 -27
-116 -45 -194 -65 -119 -30 -129 -32 -258 -37 -66 -3 -126 -7 -132 -9 -7 -2
-13 -1 -13 3 0 4 -15 7 -33 8 -157 3 -383 78 -582 192 -111 63 -227 152 -310
237 -76 78 -87 92 -111 145 -24 52 -24 80 -3 130 39 89 169 175 369 245 56 19
111 37 123 40 12 2 47 11 77 20 30 9 71 18 90 20 19 3 44 7 56 10 12 2 39 7
60 10 21 3 48 7 59 10 11 2 56 7 100 10 44 4 81 8 82 9 6 5 403 -2 458 -8z"/>
</g>
</svg>
